<mxfile host="65bd71144e">
    <diagram id="prXP3yVRkw-bXfKzo3PY" name="Admin Use Cases">
        <mxGraphModel dx="967" dy="500" grid="1" gridSize="10" guides="1" tooltips="1" connect="1" arrows="1" fold="1" page="1" pageScale="1" pageWidth="1100" pageHeight="850" background="none" math="0" shadow="0">
            <root>
                <mxCell id="0"/>
                <mxCell id="1" parent="0"/>
                <mxCell id="2" value="News Aggregation System - Admin Use Cases" style="text;html=1;strokeColor=none;fillColor=none;align=center;verticalAlign=middle;whiteSpace=wrap;rounded=0;fontSize=16;fontStyle=1" parent="1" vertex="1">
                    <mxGeometry x="350" y="20" width="400" height="30" as="geometry"/>
                </mxCell>
                <mxCell id="3" value="" style="rounded=0;whiteSpace=wrap;html=1;fillColor=#f5f5f5;strokeColor=#666666;fontColor=#333333;" parent="1" vertex="1">
                    <mxGeometry x="1160" y="60" width="210" height="190" as="geometry"/>
                </mxCell>
                <mxCell id="4" value="Legend" style="text;html=1;strokeColor=none;fillColor=none;align=center;verticalAlign=middle;whiteSpace=wrap;rounded=0;fontSize=14;fontStyle=1" parent="1" vertex="1">
                    <mxGeometry x="1160" y="65" width="210" height="30" as="geometry"/>
                </mxCell>
                <mxCell id="5" value="" style="ellipse;whiteSpace=wrap;html=1;fillColor=#dae8fc;strokeColor=#6c8ebf;" parent="1" vertex="1">
                    <mxGeometry x="1170" y="100" width="40" height="20" as="geometry"/>
                </mxCell>
                <mxCell id="6" value="Authentication" style="text;html=1;strokeColor=none;fillColor=none;align=left;verticalAlign=middle;whiteSpace=wrap;rounded=0;" parent="1" vertex="1">
                    <mxGeometry x="1220" y="100" width="130" height="20" as="geometry"/>
                </mxCell>
                <mxCell id="7" value="" style="ellipse;whiteSpace=wrap;html=1;fillColor=#d5e8d4;strokeColor=#82b366;" parent="1" vertex="1">
                    <mxGeometry x="1170" y="130" width="40" height="20" as="geometry"/>
                </mxCell>
                <mxCell id="8" value="Server Management" style="text;html=1;strokeColor=none;fillColor=none;align=left;verticalAlign=middle;whiteSpace=wrap;rounded=0;" parent="1" vertex="1">
                    <mxGeometry x="1220" y="130" width="130" height="20" as="geometry"/>
                </mxCell>
                <mxCell id="9" value="" style="ellipse;whiteSpace=wrap;html=1;fillColor=#ffe6cc;strokeColor=#d79b00;" parent="1" vertex="1">
                    <mxGeometry x="1170" y="160" width="40" height="20" as="geometry"/>
                </mxCell>
                <mxCell id="10" value="Category Management" style="text;html=1;strokeColor=none;fillColor=none;align=left;verticalAlign=middle;whiteSpace=wrap;rounded=0;" parent="1" vertex="1">
                    <mxGeometry x="1220" y="160" width="130" height="20" as="geometry"/>
                </mxCell>
                <mxCell id="11" value="" style="ellipse;whiteSpace=wrap;html=1;fillColor=#e1d5e7;strokeColor=#9673a6;" parent="1" vertex="1">
                    <mxGeometry x="1170" y="190" width="40" height="20" as="geometry"/>
                </mxCell>
                <mxCell id="12" value="User Management" style="text;html=1;strokeColor=none;fillColor=none;align=left;verticalAlign=middle;whiteSpace=wrap;rounded=0;" parent="1" vertex="1">
                    <mxGeometry x="1220" y="190" width="130" height="20" as="geometry"/>
                </mxCell>
                <mxCell id="13" value="" style="ellipse;whiteSpace=wrap;html=1;fillColor=#f8cecc;strokeColor=#b85450;" parent="1" vertex="1">
                    <mxGeometry x="1170" y="220" width="40" height="20" as="geometry"/>
                </mxCell>
                <mxCell id="14" value="Auth Gateway" style="text;html=1;strokeColor=none;fillColor=none;align=left;verticalAlign=middle;whiteSpace=wrap;rounded=0;" parent="1" vertex="1">
                    <mxGeometry x="1220" y="220" width="130" height="20" as="geometry"/>
                </mxCell>
                <mxCell id="20" value="Admin" style="shape=umlActor;verticalLabelPosition=bottom;verticalAlign=top;html=1;outlineConnect=0;" parent="1" vertex="1">
                    <mxGeometry x="100" y="400" width="40" height="80" as="geometry"/>
                </mxCell>
                <mxCell id="30" value="News Aggregation System" style="shape=rect;html=1;verticalAlign=top;fontStyle=1;whiteSpace=wrap;align=center;fillColor=none;strokeWidth=1;container=1;" parent="1" vertex="1">
                    <mxGeometry x="200" y="60" width="930" height="730" as="geometry"/>
                </mxCell>
                <mxCell id="110" value="" style="shape=rect;html=1;verticalAlign=top;fontStyle=1;whiteSpace=wrap;align=center;fillColor=none;strokeColor=#36393d;container=1;dashed=1;" parent="30" vertex="1">
                    <mxGeometry x="20.296666666666667" y="10" width="361.6666666666667" height="190" as="geometry"/>
                </mxCell>
                <mxCell id="31" value="Authentication Features" style="text;html=1;strokeColor=none;fillColor=none;align=left;verticalAlign=middle;whiteSpace=wrap;rounded=0;fontSize=14;fontStyle=1" parent="110" vertex="1">
                    <mxGeometry x="103.33333333333334" width="175.66666666666669" height="20" as="geometry"/>
                </mxCell>
                <mxCell id="33" value="&lt;span style=&quot;color: rgb(0, 0, 0);&quot;&gt;Login&lt;/span&gt;" style="ellipse;whiteSpace=wrap;html=1;fillColor=#dae8fc;strokeColor=#6c8ebf;" parent="110" vertex="1">
                    <mxGeometry x="20.666666666666668" y="40" width="124.00000000000001" height="40" as="geometry"/>
                </mxCell>
                <mxCell id="150" value="Logout" style="ellipse;whiteSpace=wrap;html=1;fillColor=#dae8fc;strokeColor=#6c8ebf;" parent="110" vertex="1">
                    <mxGeometry x="20.67" y="100" width="124" height="40" as="geometry"/>
                </mxCell>
                <mxCell id="35" value="Admin Authentication" style="ellipse;whiteSpace=wrap;html=1;fillColor=#dae8fc;strokeColor=#6c8ebf;" parent="110" vertex="1">
                    <mxGeometry x="227.33333333333334" y="70" width="124.00000000000001" height="40" as="geometry"/>
                </mxCell>
                <mxCell id="37" value="&lt;font style=&quot;font-size: 10px;&quot;&gt;&amp;lt;&amp;lt;include&amp;gt;&amp;gt;&lt;/font&gt;" style="endArrow=open;endSize=12;dashed=1;html=1;fontSize=10;exitX=1;exitY=0.5;exitDx=0;exitDy=0;entryX=0;entryY=0.5;entryDx=0;entryDy=0;" parent="110" source="33" target="35" edge="1">
                    <mxGeometry width="160" relative="1" as="geometry"/>
                </mxCell>
                <mxCell id="151" value="&lt;font style=&quot;font-size: 10px;&quot;&gt;&amp;lt;&amp;lt;enable&amp;gt;&amp;gt;&lt;/font&gt;" style="endArrow=open;endSize=12;dashed=1;html=1;fontSize=10;exitX=0.5;exitY=1;exitDx=0;exitDy=0;entryX=0.5;entryY=0;entryDx=0;entryDy=0;" parent="110" source="33" target="150" edge="1">
                    <mxGeometry width="160" relative="1" as="geometry"/>
                </mxCell>
                <mxCell id="111" value="Admin Management Features" style="shape=rect;html=1;verticalAlign=top;fontStyle=1;whiteSpace=wrap;align=center;fillColor=none;strokeColor=#36393d;container=1;dashed=1;" parent="30" vertex="1">
                    <mxGeometry x="21" y="210" width="879.33" height="510" as="geometry"/>
                </mxCell>
                <mxCell id="40" value="Server Management" style="text;html=1;strokeColor=none;fillColor=none;align=left;verticalAlign=middle;whiteSpace=wrap;rounded=0;fontSize=14;fontStyle=1" parent="111" vertex="1">
                    <mxGeometry x="29.311" width="249.14350000000002" height="20" as="geometry"/>
                </mxCell>
                <mxCell id="90" value="Admin can see the status of all&#xa;external news API connections&#xa;(Active/Inactive)" style="shape=callout;whiteSpace=wrap;html=1;perimeter=calloutPerimeter;size=30;position=0;base=10;fillColor=#fff2cc;strokeColor=#d6b656;align=center;position2=0;rotation=0;" parent="111" vertex="1">
                    <mxGeometry x="369.33" y="50" width="200" height="80" as="geometry"/>
                </mxCell>
                <mxCell id="60" value="User Management" style="text;html=1;strokeColor=none;fillColor=none;align=left;verticalAlign=middle;whiteSpace=wrap;rounded=0;fontSize=14;fontStyle=1" parent="111" vertex="1">
                    <mxGeometry x="29.311" y="170" width="249.14350000000002" height="20" as="geometry"/>
                </mxCell>
                <mxCell id="70" value="Category Management" style="text;html=1;strokeColor=none;fillColor=none;align=left;verticalAlign=middle;whiteSpace=wrap;rounded=0;fontSize=14;fontStyle=1" parent="111" vertex="1">
                    <mxGeometry x="29.311" y="280" width="249.14350000000002" height="20" as="geometry"/>
                </mxCell>
                <mxCell id="91" value="Admin can define keywords&#xa;that map to categories for&#xa;auto-categorization" style="shape=callout;whiteSpace=wrap;html=1;perimeter=calloutPerimeter;size=20;position=0.58;base=20;fillColor=#fff2cc;strokeColor=#d6b656;align=center;" parent="111" vertex="1">
                    <mxGeometry x="366.74" y="290" width="249.14" height="70" as="geometry"/>
                </mxCell>
                <mxCell id="92" value="Admin can view details&lt;br&gt;about user accounts" style="shape=callout;whiteSpace=wrap;html=1;perimeter=calloutPerimeter;position2=0.21;size=30;position=0.21;base=11;fillColor=#fff2cc;strokeColor=#d6b656;align=center;" parent="111" vertex="1">
                    <mxGeometry x="366.74" y="185" width="205.18" height="70" as="geometry"/>
                </mxCell>
                <mxCell id="71" value="Add News Category" style="ellipse;whiteSpace=wrap;html=1;fillColor=#ffe6cc;strokeColor=#d79b00;" parent="111" vertex="1">
                    <mxGeometry x="21.033333333333324" y="320" width="124.00000000000001" height="40" as="geometry"/>
                </mxCell>
                <mxCell id="61" value="Manage User Accounts" style="ellipse;whiteSpace=wrap;html=1;fillColor=#e1d5e7;strokeColor=#9673a6;" parent="111" vertex="1">
                    <mxGeometry x="21.033333333333324" y="200" width="124.00000000000001" height="40" as="geometry"/>
                </mxCell>
                <mxCell id="63" value="View User&amp;nbsp;" style="ellipse;whiteSpace=wrap;html=1;fillColor=#e1d5e7;strokeColor=#9673a6;" parent="111" vertex="1">
                    <mxGeometry x="219" y="200" width="124" height="40" as="geometry"/>
                </mxCell>
                <mxCell id="65" value="&lt;font style=&quot;font-size: 10px;&quot;&gt;&amp;lt;&amp;lt;extend&amp;gt;&amp;gt;&lt;/font&gt;" style="endArrow=open;endSize=12;dashed=1;html=1;fontSize=10;exitX=0;exitY=0.5;exitDx=0;exitDy=0;entryX=1;entryY=0.5;entryDx=0;entryDy=0;" parent="111" source="63" target="61" edge="1">
                    <mxGeometry width="160" relative="1" as="geometry"/>
                </mxCell>
                <mxCell id="42" value="View Server Details" style="ellipse;whiteSpace=wrap;html=1;fillColor=#d5e8d4;strokeColor=#82b366;" parent="111" vertex="1">
                    <mxGeometry x="21.033333333333324" y="100" width="124.00000000000001" height="40" as="geometry"/>
                </mxCell>
                <mxCell id="44" value="Update API Keys" style="ellipse;whiteSpace=wrap;html=1;fillColor=#d5e8d4;strokeColor=#82b366;" parent="111" vertex="1">
                    <mxGeometry x="227.7" y="100" width="124" height="40" as="geometry"/>
                </mxCell>
                <mxCell id="76" value="&lt;font style=&quot;font-size: 10px;&quot;&gt;&amp;lt;&amp;lt;extend&amp;gt;&amp;gt;&lt;/font&gt;" style="endArrow=open;endSize=12;dashed=1;html=1;fontSize=10;exitX=0;exitY=0.5;exitDx=0;exitDy=0;entryX=1;entryY=0.5;entryDx=0;entryDy=0;" parent="111" source="44" target="42" edge="1">
                    <mxGeometry width="160" relative="1" as="geometry">
                        <mxPoint x="227.7" y="480" as="targetPoint"/>
                    </mxGeometry>
                </mxCell>
                <mxCell id="41" value="View Server Status" style="ellipse;whiteSpace=wrap;html=1;fillColor=#d5e8d4;strokeColor=#82b366;" parent="111" vertex="1">
                    <mxGeometry x="21.033333333333324" y="50" width="124.00000000000001" height="40" as="geometry"/>
                </mxCell>
                <mxCell id="48" value="Check API Connection" style="ellipse;whiteSpace=wrap;html=1;fillColor=#d5e8d4;strokeColor=#82b366;" parent="111" vertex="1">
                    <mxGeometry x="227.7" y="50" width="124" height="40" as="geometry"/>
                </mxCell>
                <mxCell id="49" value="&lt;font style=&quot;font-size: 10px;&quot;&gt;&amp;lt;&amp;lt;include&amp;gt;&amp;gt;&lt;/font&gt;" style="endArrow=open;endSize=12;dashed=1;html=1;fontSize=10;exitX=1;exitY=0.5;exitDx=0;exitDy=0;entryX=0;entryY=0.5;entryDx=0;entryDy=0;" parent="111" source="41" target="48" edge="1">
                    <mxGeometry width="160" relative="1" as="geometry"/>
                </mxCell>
                <mxCell id="152" value="Auto Categorization" style="ellipse;whiteSpace=wrap;html=1;fillColor=#ffe6cc;strokeColor=#d79b00;" parent="111" vertex="1">
                    <mxGeometry x="21.033333333333324" y="380" width="124.00000000000001" height="40" as="geometry"/>
                </mxCell>
                <mxCell id="153" value="New Article" style="ellipse;whiteSpace=wrap;html=1;fillColor=#ffe6cc;strokeColor=#d79b00;" parent="111" vertex="1">
                    <mxGeometry x="189.00333333333333" y="320" width="124.00000000000001" height="40" as="geometry"/>
                </mxCell>
                <mxCell id="154" value="&lt;font style=&quot;font-size: 10px;&quot;&gt;&amp;lt;&amp;lt;include&amp;gt;&amp;gt;&lt;/font&gt;" style="endArrow=open;endSize=12;dashed=1;html=1;fontSize=10;exitX=1;exitY=0.5;exitDx=0;exitDy=0;entryX=0;entryY=0.5;entryDx=0;entryDy=0;" parent="111" source="152" target="153" edge="1">
                    <mxGeometry width="160" relative="1" as="geometry">
                        <mxPoint x="155" y="80" as="sourcePoint"/>
                        <mxPoint x="238" y="80" as="targetPoint"/>
                    </mxGeometry>
                </mxCell>
                <mxCell id="50" value="Admin privileges required&#xa;for all features" style="shape=note;strokeWidth=1;fontSize=12;size=15;whiteSpace=wrap;html=1;fillColor=#fff2cc;strokeColor=#d6b656;fontColor=#666600;align=left;spacing=3;" parent="30" vertex="1">
                    <mxGeometry x="392.67" y="30" width="206.67" height="50" as="geometry"/>
                </mxCell>
                <mxCell id="122" value="Authenticate" style="ellipse;whiteSpace=wrap;html=1;fillColor=#f8cecc;strokeColor=#b85450;fontStyle=1" parent="30" vertex="1">
                    <mxGeometry x="620" y="60" width="124" height="40" as="geometry"/>
                </mxCell>
                <mxCell id="124" value="Authorize as Admin" style="ellipse;whiteSpace=wrap;html=1;fillColor=#f8cecc;strokeColor=#b85450;fontStyle=1" parent="30" vertex="1">
                    <mxGeometry x="777" y="60" width="122.63" height="40" as="geometry"/>
                </mxCell>
                <mxCell id="128" value="&lt;font style=&quot;font-size: 10px;&quot;&gt;&amp;lt;&amp;lt;include&amp;gt;&amp;gt;&lt;/font&gt;" style="endArrow=open;endSize=12;dashed=1;html=1;fontSize=10;exitX=0.75;exitY=0;exitDx=0;exitDy=0;entryX=0.5;entryY=1;entryDx=0;entryDy=0;" parent="30" source="111" target="122" edge="1">
                    <mxGeometry width="160" relative="1" as="geometry">
                        <mxPoint x="175.66666666666669" y="90" as="sourcePoint"/>
                        <mxPoint x="258.33333333333337" y="90" as="targetPoint"/>
                    </mxGeometry>
                </mxCell>
                <mxCell id="131" value="&lt;font style=&quot;font-size: 10px;&quot;&gt;&amp;lt;&amp;lt;include&amp;gt;&amp;gt;&lt;/font&gt;" style="endArrow=open;endSize=12;dashed=1;html=1;fontSize=10;exitX=0.938;exitY=0.003;exitDx=0;exitDy=0;entryX=0.5;entryY=1;entryDx=0;entryDy=0;exitPerimeter=0;" parent="30" source="111" edge="1">
                    <mxGeometry width="160" relative="1" as="geometry">
                        <mxPoint x="846" y="180" as="sourcePoint"/>
                        <mxPoint x="846" y="100" as="targetPoint"/>
                    </mxGeometry>
                </mxCell>
                <mxCell id="100" value="" style="endArrow=none;html=1;entryX=0;entryY=0.5;entryDx=0;entryDy=0;exitX=1;exitY=0.3333333333333333;exitDx=0;exitDy=0;exitPerimeter=0;" parent="1" source="20" target="33" edge="1">
                    <mxGeometry width="50" height="50" relative="1" as="geometry"/>
                </mxCell>
                <mxCell id="101" value="" style="endArrow=none;html=1;entryX=0;entryY=0.5;entryDx=0;entryDy=0;exitX=1;exitY=0.3333333333333333;exitDx=0;exitDy=0;exitPerimeter=0;" parent="1" source="20" target="150" edge="1">
                    <mxGeometry width="50" height="50" relative="1" as="geometry"/>
                </mxCell>
                <mxCell id="102" value="" style="endArrow=none;html=1;entryX=0;entryY=0.5;entryDx=0;entryDy=0;exitX=1;exitY=0.3333333333333333;exitDx=0;exitDy=0;exitPerimeter=0;" parent="1" source="20" target="41" edge="1">
                    <mxGeometry width="50" height="50" relative="1" as="geometry"/>
                </mxCell>
                <mxCell id="103" value="" style="endArrow=none;html=1;entryX=0;entryY=0.5;entryDx=0;entryDy=0;exitX=1;exitY=0.3333333333333333;exitDx=0;exitDy=0;exitPerimeter=0;" parent="1" source="20" target="42" edge="1">
                    <mxGeometry width="50" height="50" relative="1" as="geometry"/>
                </mxCell>
                <mxCell id="105" value="" style="endArrow=none;html=1;entryX=0;entryY=0.5;entryDx=0;entryDy=0;exitX=1;exitY=0.3333333333333333;exitDx=0;exitDy=0;exitPerimeter=0;" parent="1" source="20" target="61" edge="1">
                    <mxGeometry width="50" height="50" relative="1" as="geometry"/>
                </mxCell>
                <mxCell id="106" value="" style="endArrow=none;html=1;entryX=0;entryY=0.5;entryDx=0;entryDy=0;exitX=1;exitY=0.3333333333333333;exitDx=0;exitDy=0;exitPerimeter=0;" parent="1" source="20" target="71" edge="1">
                    <mxGeometry width="50" height="50" relative="1" as="geometry"/>
                </mxCell>
                <mxCell id="156" style="edgeStyle=none;html=1;exitX=0;exitY=0.3333333333333333;exitDx=0;exitDy=0;exitPerimeter=0;entryX=1;entryY=0.5;entryDx=0;entryDy=0;endArrow=none;endFill=0;" parent="1" source="155" target="152" edge="1">
                    <mxGeometry relative="1" as="geometry"/>
                </mxCell>
                <mxCell id="155" value="LLM" style="shape=umlActor;verticalLabelPosition=bottom;verticalAlign=top;html=1;outlineConnect=0;" parent="1" vertex="1">
                    <mxGeometry x="1180" y="647" width="40" height="80" as="geometry"/>
                </mxCell>
            </root>
        </mxGraphModel>
    </diagram>
</mxfile>